<svg width="16" height="20" viewBox="0 0 16 20" fill="none" xmlns="http://www.w3.org/2000/svg">
<path d="M2 19.1667C1.54167 19.1667 1.1493 19.0035 0.822915 18.6771C0.496527 18.3507 0.333332 17.9583 0.333332 17.5V2.50001C0.333332 2.04168 0.496527 1.64932 0.822915 1.32293C1.1493 0.996538 1.54167 0.833344 2 0.833344H10.3333C10.7917 0.833344 11.184 0.996538 11.5104 1.32293C11.8368 1.64932 12 2.04168 12 2.50001V5.83334H10.3333V5.00001H2V15H10.3333V14.1667H12V17.5C12 17.9583 11.8368 18.3507 11.5104 18.6771C11.184 19.0035 10.7917 19.1667 10.3333 19.1667H2ZM2 16.6667V17.5H10.3333V16.6667H2ZM9.45833 13.3333L5.91667 9.79168L7.08333 8.62501L9.45833 11L14.1667 6.29168L15.3333 7.45834L9.45833 13.3333ZM2 3.33334H10.3333V2.50001H2V3.33334Z" fill="#321C13"/>
</svg>
