<svg width="49" height="49" viewBox="0 0 49 49" fill="none" xmlns="http://www.w3.org/2000/svg">
<path d="M24.5 49C11 49 0 38 0 24.5C0 11 11 0 24.5 0C38 0 49 11 49 24.5C49 38 38 49 24.5 49ZM24.5 0.85C11.45 0.85 0.85 11.45 0.85 24.5C0.85 37.55 11.45 48.15 24.5 48.15C37.55 48.15 48.15 37.55 48.15 24.5C48.15 11.45 37.55 0.85 24.5 0.85Z" fill="white"/>
<path d="M23.55 33.45C22.85 33.45 22.1 33.4 21.4 33.3C18.4 33 15.55 31.65 13.4 29.5C11.6 27.7 10.55 24.6 10.6 21.2C10.6 20.9 10.8 20.7 11.1 20.65C14.65 20.2 17.7 20.9 20.05 22.7C23 24.9 24.75 24.75 26.3 24.35C27.25 24.15 28.15 23.8 29.05 23.5C31.65 22.6 34.1 21.75 36.25 23.6C36.35 23.7 36.45 23.85 36.45 24C36.6 26.15 35.7 28.15 34 29.8C31.55 32.05 27.55 33.45 23.55 33.45ZM11.75 21.7C11.85 26 13.65 28.15 14.25 28.7C16.2 30.65 18.8 31.9 21.6 32.2C25.95 32.75 30.65 31.45 33.3 29C34.75 27.65 35.45 26.05 35.45 24.35C33.8 23.1 31.9 23.75 29.5 24.6C28.6 24.9 27.65 25.25 26.65 25.5C24.5 26 22.45 25.9 19.45 23.65C17.35 22.05 14.8 21.4 11.75 21.7Z" fill="white"/>
<path d="M24.1 29.65C20.55 29.65 17.5 28.4 15.3 26C15.1 25.75 15.1 25.4 15.35 25.2C15.6 25 15.95 25 16.15 25.25C18.55 27.9 22.15 29 26.3 28.4C31.4 27.65 36.1 24.45 38 20.45C38.15 20.15 38.45 20.05 38.75 20.2C39.05 20.35 39.15 20.65 39 20.95C36.95 25.3 31.95 28.75 26.5 29.55C25.65 29.6 24.85 29.65 24.1 29.65Z" fill="white"/>
<path d="M23.45 33.4C23.25 33.4 23.05 33.3 22.95 33.1C22.8 32.8 22.95 32.5 23.2 32.35C24.35 31.8 25.4 31 26.15 30C26.35 29.75 26.7 29.7 26.95 29.9C27.2 30.1 27.25 30.45 27.05 30.7C26.15 31.85 25 32.75 23.7 33.4C23.6 33.4 23.5 33.4 23.45 33.4Z" fill="white"/>
<path d="M18.85 25.7C18.6 25.7 18.4 25.55 18.3 25.3C18.05 24.35 17.9 23.3 17.85 22.3C17.85 22 18.1 21.75 18.4 21.75C18.7 21.75 18.95 22 18.95 22.3C18.95 23.2 19.1 24.15 19.35 25C19.45 25.3 19.25 25.6 18.95 25.7C18.95 25.7 18.9 25.7 18.85 25.7Z" fill="white"/>
</svg>
