<svg width="20" height="20" viewBox="0 0 20 20" fill="none" xmlns="http://www.w3.org/2000/svg">
<g clip-path="url(#clip0_55_299)">
<path d="M16.6667 9.99999V18.3333H3.33332V9.99999M9.99999 18.3333V5.83332M9.99999 5.83332H6.24999C5.69746 5.83332 5.16755 5.61383 4.77685 5.22313C4.38615 4.83243 4.16666 4.30252 4.16666 3.74999C4.16666 3.19746 4.38615 2.66755 4.77685 2.27685C5.16755 1.88615 5.69746 1.66666 6.24999 1.66666C9.16666 1.66666 9.99999 5.83332 9.99999 5.83332ZM9.99999 5.83332H13.75C14.3025 5.83332 14.8324 5.61383 15.2231 5.22313C15.6138 4.83243 15.8333 4.30252 15.8333 3.74999C15.8333 3.19746 15.6138 2.66755 15.2231 2.27685C14.8324 1.88615 14.3025 1.66666 13.75 1.66666C10.8333 1.66666 9.99999 5.83332 9.99999 5.83332ZM1.66666 5.83332H18.3333V9.99999H1.66666V5.83332Z" stroke="#321C13" stroke-width="2" stroke-linecap="round" stroke-linejoin="round"/>
</g>
<defs>
<clipPath id="clip0_55_299">
<rect width="20" height="20" fill="white"/>
</clipPath>
</defs>
</svg>
