<svg width="12" height="18" viewBox="0 0 12 18" fill="none" xmlns="http://www.w3.org/2000/svg">
<path d="M6 17.3333C5.80556 17.3333 5.63889 17.2778 5.50001 17.1667C5.36112 17.0555 5.25695 16.9097 5.18751 16.7292C4.92362 15.9514 4.59028 15.2222 4.18751 14.5417C3.79862 13.8611 3.25001 13.0625 2.54167 12.1458C1.83334 11.2292 1.25695 10.3542 0.812505 9.52082C0.38195 8.68749 0.166672 7.68054 0.166672 6.49999C0.166672 4.87499 0.729172 3.49999 1.85417 2.37499C2.99306 1.2361 4.37501 0.666656 6 0.666656C7.62501 0.666656 9.00001 1.2361 10.125 2.37499C11.2639 3.49999 11.8333 4.87499 11.8333 6.49999C11.8333 7.76388 11.5903 8.81943 11.1042 9.66666C10.6319 10.5 10.0833 11.3264 9.45834 12.1458C8.70834 13.1458 8.13889 13.9792 7.75001 14.6458C7.37501 15.2986 7.06251 15.993 6.81251 16.7292C6.74306 16.9236 6.63195 17.0764 6.47917 17.1875C6.34028 17.2847 6.18056 17.3333 6 17.3333ZM6 14.3542C6.23612 13.8819 6.50001 13.4167 6.79167 12.9583C7.09723 12.5 7.54167 11.8889 8.12501 11.125C8.72223 10.3472 9.20834 9.63193 9.58334 8.97916C9.97223 8.31249 10.1667 7.4861 10.1667 6.49999C10.1667 5.34721 9.75695 4.36804 8.93751 3.56249C8.13195 2.74305 7.15278 2.33332 6 2.33332C4.84723 2.33332 3.86112 2.74305 3.04167 3.56249C2.23612 4.36804 1.83334 5.34721 1.83334 6.49999C1.83334 7.4861 2.02084 8.31249 2.39584 8.97916C2.78473 9.63193 3.27778 10.3472 3.87501 11.125C4.45834 11.8889 4.89584 12.5 5.18751 12.9583C5.49306 13.4167 5.76389 13.8819 6 14.3542ZM6 8.58332C6.58334 8.58332 7.07639 8.38193 7.47917 7.97916C7.88195 7.57638 8.08334 7.08332 8.08334 6.49999C8.08334 5.91666 7.88195 5.4236 7.47917 5.02082C7.07639 4.61804 6.58334 4.41666 6 4.41666C5.41667 4.41666 4.92362 4.61804 4.52084 5.02082C4.11806 5.4236 3.91667 5.91666 3.91667 6.49999C3.91667 7.08332 4.11806 7.57638 4.52084 7.97916C4.92362 8.38193 5.41667 8.58332 6 8.58332Z" fill="#1D1B20"/>
</svg>
